<svg id="Group_4626" data-name="Group 4626" xmlns="http://www.w3.org/2000/svg" width="78.565" height="76.173" viewBox="0 0 78.565 76.173">
  <path id="Path_1421" data-name="Path 1421" d="M440.38,625.391c-.393.011-.787-.017-1.18-.017q-25.447,0-50.894,0h-.875c-.02.3-.047.5-.047.708q0,14.238,0,28.476c0,1.088.006,1.089,1.125,1.089q23.717,0,47.433,0h5.672v-.984q0-14,0-28C441.62,625.258,441.737,625.349,440.38,625.391Zm-43,4.835v0h3.052a21.215,21.215,0,0,0-.151,3.947,16.083,16.083,0,0,0,.933,5c.039.1.076.206.118.308a10.081,10.081,0,0,0-.987.785c-.36.353-.724.749-.724.749a8.726,8.726,0,0,0-.7.82,19.825,19.825,0,0,1-1.709-7.249A21.338,21.338,0,0,1,397.383,630.226Zm-1.177,19.108a15.528,15.528,0,0,1,3.88-7.172,16.142,16.142,0,0,1,2.41-1.98,16.682,16.682,0,0,1,5.252-2.336v3.3A15.643,15.643,0,0,0,396.206,649.335ZM408.9,650.8a16.239,16.239,0,0,1-5.022-2.654,16.576,16.576,0,0,1-2.647-2.6l.066-.047c.244-.181,2.295-1.605,2.564-1.857l0,0a14.527,14.527,0,0,0,5.04,3.74Zm15.052-1.3a9.084,9.084,0,0,1-1.862-17.986V642.2h10.7A8.979,8.979,0,0,1,423.954,649.506Zm1.837-10.948v-7.012a8.863,8.863,0,0,1,7.008,7.012Z" transform="translate(-375.403 -615.406)" fill="#1276d0"/>
  <path id="Path_1422" data-name="Path 1422" d="M386.25,835.081c-5.482-.015-10.965,0-16.447,0q-26.323,0-52.645-.01c-.918,0-1.839-.026-2.753.037a3.492,3.492,0,0,0,.581,6.958q8.46.013,16.919,0h1.148c-1,1.916-1.9,3.656-2.828,5.377-.08.148-.391.23-.6.238-.733.03-1.47-.017-2.2.024a1.584,1.584,0,0,0-1.6,1.681,1.563,1.563,0,0,0,1.625,1.563c.27.017.54.044.914.074-.2.4-.325.684-.467.958-1.027,1.976-2.072,3.943-3.072,5.933a2.625,2.625,0,0,0-.315,1.335,1.482,1.482,0,0,0,1.341,1.342,1.663,1.663,0,0,0,1.778-1.012c1.373-2.623,2.75-5.245,4.087-7.887a1.164,1.164,0,0,1,1.2-.752q7.555.037,15.109,0c.74,0,.928.241.923.946-.028,3.987-.014,7.974-.013,11.961,0,1-.021,1.994.019,2.99a1.464,1.464,0,0,0,1.333,1.415,1.526,1.526,0,0,0,1.753-1,3.559,3.559,0,0,0,.141-1.081q.013-7.082.006-14.165v-.985c.343-.024.6-.058.854-.058,5.063,0,10.125.007,15.188-.016a1.115,1.115,0,0,1,1.134.735c1.33,2.616,2.69,5.217,4.049,7.819a1.651,1.651,0,1,0,2.9-1.5c-1.054-2.051-2.125-4.094-3.186-6.141-.127-.245-.236-.5-.4-.84.348-.028.574-.053.8-.063,1.1-.051,1.724-.629,1.725-1.614a1.6,1.6,0,0,0-1.728-1.637c-.681-.021-1.365.019-2.045-.018a.89.89,0,0,1-.652-.285c-.921-1.7-1.8-3.422-2.793-5.329h1.11q8.42,0,16.84,0a3.583,3.583,0,0,0,3.686-2.488A3.468,3.468,0,0,0,386.25,835.081Zm-37.928,12.626c-4.694-.015-9.388-.008-14.083-.011a2.476,2.476,0,0,1-.379-.09c.947-1.813,1.843-3.553,2.774-5.274a.778.778,0,0,1,.592-.246c3.7-.015,7.4-.005,11.093-.022.5,0,.626.213.622.659q-.019,2.163,0,4.327C348.948,847.5,348.826,847.708,348.323,847.707Zm3.924-.047v-5.537c.21-.019.387-.048.563-.048,3.615,0,7.229.008,10.843-.014a.984.984,0,0,1,1.031.624c.72,1.453,1.49,2.882,2.234,4.324.092.178.15.375.259.651Z" transform="translate(-311.263 -792.098)" fill="#1276d0"/>
  <path id="Path_1423" data-name="Path 1423" d="M353.627,602.262c0-.372,0-.68,0-.987q0-15.068,0-30.135c0-1.621.471-2.077,2.128-2.077l55.866.009c1.764,0,2.185.42,2.185,2.171q0,15.028,0,30.057v.945h3.374v-.894q0-15.894,0-31.788,0-3.725-3.715-3.727-10.426,0-20.851,0c-1.567,0-1.368.209-1.381-1.374a2.129,2.129,0,0,0-2.349-2.406q-5-.01-9.993,0a2.115,2.115,0,0,0-2.335,2.343c-.008.461,0,.922,0,1.438h-1.06q-10.583,0-21.166,0a3.18,3.18,0,0,0-3.481,3.465q-.006,15.658,0,31.316c0,.539,0,1.078,0,1.644Z" transform="translate(-344.609 -562.046)" fill="#1276d0"/>
</svg>
